<?xml version="1.0" encoding="utf-8"?>
<!-- Generator: Adobe Illustrator 16.0.0, SVG Export Plug-In . SVG Version: 6.00 Build 0)  -->
<!DOCTYPE svg PUBLIC "-//W3C//DTD SVG 1.1//EN" "http://www.w3.org/Graphics/SVG/1.1/DTD/svg11.dtd">
<svg version="1.1" id="Layer_1" xmlns="http://www.w3.org/2000/svg" xmlns:xlink="http://www.w3.org/1999/xlink" x="0px" y="0px"
	 width="16px" height="16px" viewBox="0 0 16 16" enable-background="new 0 0 16 16" xml:space="preserve">
<g>
	<path fill="#FFFFFF" d="M1.47,1.461l13.057,13.058L1.47,1.461z"/>
	<path fill="#FFFFFF" d="M14.529,15.83c-0.336,0-0.67-0.128-0.926-0.384L0.544,2.389c-0.512-0.512-0.512-1.342,0-1.854
		c0.512-0.512,1.342-0.512,1.854,0l13.058,13.058c0.512,0.512,0.512,1.343,0,1.854C15.2,15.702,14.864,15.83,14.529,15.83z"/>
	<path fill="#FFFFFF" d="M14.529,1.501L1.491,14.539L14.529,1.501z"/>
	<path fill="#FFFFFF" d="M1.491,15.85c-0.336,0-0.67-0.128-0.926-0.384c-0.512-0.513-0.512-1.343,0-1.854L13.602,0.574
		c0.512-0.512,1.342-0.512,1.854,0c0.512,0.512,0.512,1.343,0,1.854L2.417,15.466C2.162,15.722,1.826,15.85,1.491,15.85z"/>
</g>
</svg>
