<?xml version="1.0" encoding="utf-8"?>
<!-- Generator: Adobe Illustrator 16.0.0, SVG Export Plug-In . SVG Version: 6.00 Build 0)  -->
<!DOCTYPE svg PUBLIC "-//W3C//DTD SVG 1.1//EN" "http://www.w3.org/Graphics/SVG/1.1/DTD/svg11.dtd">
<svg version="1.1" id="Layer_1" xmlns="http://www.w3.org/2000/svg" xmlns:xlink="http://www.w3.org/1999/xlink" x="0px" y="0px"
	 width="24px" height="24px" viewBox="0 0 24 24" enable-background="new 0 0 24 24" xml:space="preserve">
<path d="M0.305,12.024c0-6.486,5.245-11.742,11.719-11.742s11.72,5.256,11.72,11.742s-5.246,11.742-11.72,11.742
	S0.305,18.51,0.305,12.024z M5.715,8.265l3.812,3.833l-3.812,3.907c-0.753,0.769-0.753,2.007,0,2.699
	c0.762,0.836,1.991,0.836,2.679,0l3.806-3.767l3.878,3.767c0.761,0.836,1.991,0.836,2.678,0c0.83-0.692,0.83-1.931,0-2.699
	l-3.736-3.907l3.736-3.833c0.83-0.692,0.83-1.932,0-2.7c-0.687-0.758-1.917-0.758-2.678,0l-3.878,3.842L8.394,5.564
	c-0.688-0.758-1.915-0.758-2.679,0C4.962,6.334,4.962,7.573,5.715,8.265L5.715,8.265z"/>
</svg>
